# ProBuilder 6.0.7
# https://unity3d.com/unity/features/worldbuilding/probuilder
# 9/15/2025 12:52:38 PM

mtllib ./Cone_(1).mtl
o Cone (1)

g Cone (1)
v -0.5 -0.5 0
v -0.4975924 -0.5 0.04900857
v 0 0.5 0
v 0 -0.5 0
v -0.4903926 -0.5 0.09754516
v -0.4784702 -0.5 0.1451423
v -0.4619398 -0.5 0.1913417
v -0.4409606 -0.5 0.2356984
v -0.4157348 -0.5 0.2777851
v -0.3865052 -0.5 0.3171966
v -0.3535534 -0.5 0.3535534
v -0.3171966 -0.5 0.3865052
v -0.2777851 -0.5 0.4157348
v -0.2356984 -0.5 0.4409606
v -0.1913417 -0.5 0.4619398
v -0.1451423 -0.5 0.4784702
v -0.09754518 -0.5 0.4903926
v -0.04900857 -0.5 0.4975924
v 2.185569E-08 -0.5 0.5
v 0.04900855 -0.5 0.4975924
v 0.09754516 -0.5 0.4903926
v 0.1451424 -0.5 0.4784701
v 0.1913417 -0.5 0.4619398
v 0.2356983 -0.5 0.4409606
v 0.2777851 -0.5 0.4157348
v 0.3171966 -0.5 0.3865052
v 0.3535534 -0.5 0.3535534
v 0.3865052 -0.5 0.3171966
v 0.4157348 -0.5 0.2777851
v 0.4409606 -0.5 0.2356984
v 0.4619398 -0.5 0.1913417
v 0.4784702 -0.5 0.1451424
v 0.4903927 -0.5 0.09754515
v 0.4975924 -0.5 0.04900855
v 0.5 -0.5 -4.371139E-08
v 0.4975924 -0.5 -0.04900851
v 0.4903927 -0.5 -0.09754512
v 0.4784702 -0.5 -0.1451423
v 0.4619398 -0.5 -0.1913417
v 0.4409606 -0.5 -0.2356984
v 0.4157348 -0.5 -0.2777852
v 0.3865053 -0.5 -0.3171966
v 0.3535534 -0.5 -0.3535534
v 0.3171967 -0.5 -0.3865052
v 0.2777852 -0.5 -0.4157347
v 0.2356983 -0.5 -0.4409606
v 0.1913418 -0.5 -0.4619398
v 0.1451423 -0.5 -0.4784702
v 0.09754519 -0.5 -0.4903926
v 0.0490087 -0.5 -0.4975924
v -5.96244E-09 -0.5 -0.5
v -0.04900848 -0.5 -0.4975924
v -0.09754521 -0.5 -0.4903926
v -0.1451423 -0.5 -0.4784702
v -0.1913418 -0.5 -0.4619397
v -0.2356984 -0.5 -0.4409606
v -0.277785 -0.5 -0.4157349
v -0.3171967 -0.5 -0.3865052
v -0.3535533 -0.5 -0.3535534
v -0.3865053 -0.5 -0.3171966
v -0.4157348 -0.5 -0.2777852
v -0.4409606 -0.5 -0.2356985
v -0.4619398 -0.5 -0.1913417
v -0.4784701 -0.5 -0.1451424
v -0.4903927 -0.5 -0.09754512
v -0.4975924 -0.5 -0.04900862

vt 0 0
vt 0.09813535 0
vt 0.04906775 1.413362
vt -0.5 0
vt -0.4975924 0.04900857
vt -0.4903926 0.09754516
vt -0.4784702 0.1451423
vt -0.4619398 0.1913417
vt -0.4409606 0.2356984
vt -0.4157348 0.2777851
vt -0.3865052 0.3171966
vt -0.3535534 0.3535534
vt -0.3171966 0.3865052
vt -0.2777851 0.4157348
vt -0.2356984 0.4409606
vt -0.1913417 0.4619398
vt -0.1451423 0.4784702
vt -0.09754518 0.4903926
vt -0.04900857 0.4975924
vt 2.185569E-08 0.5
vt 0.04900855 0.4975924
vt 0.09754516 0.4903926
vt 0.1451424 0.4784701
vt 0.1913417 0.4619398
vt 0.2356983 0.4409606
vt 0.2777851 0.4157348
vt 0.3171966 0.3865052
vt 0.3535534 0.3535534
vt 0.3865052 0.3171966
vt 0.4157348 0.2777851
vt 0.4409606 0.2356984
vt 0.4619398 0.1913417
vt 0.4784702 0.1451424
vt 0.4903927 0.09754515
vt 0.4975924 0.04900855
vt 0.5 -4.371139E-08
vt 0.4975924 -0.04900851
vt 0.4903927 -0.09754512
vt 0.4784702 -0.1451423
vt 0.4619398 -0.1913417
vt 0.4409606 -0.2356984
vt 0.4157348 -0.2777852
vt 0.3865053 -0.3171966
vt 0.3535534 -0.3535534
vt 0.3171967 -0.3865052
vt 0.2777852 -0.4157347
vt 0.2356983 -0.4409606
vt 0.1913418 -0.4619398
vt 0.1451423 -0.4784702
vt 0.09754519 -0.4903926
vt 0.0490087 -0.4975924
vt -5.96244E-09 -0.5
vt -0.04900848 -0.4975924
vt -0.09754521 -0.4903926
vt -0.1451423 -0.4784702
vt -0.1913418 -0.4619397
vt -0.2356984 -0.4409606
vt -0.277785 -0.4157349
vt -0.3171967 -0.3865052
vt -0.3535533 -0.3535534
vt -0.3865053 -0.3171966
vt -0.4157348 -0.2777852
vt -0.4409606 -0.2356985
vt -0.4619398 -0.1913417
vt -0.4784701 -0.1451424
vt -0.4903927 -0.09754512
vt -0.4975924 -0.04900862

vn -0.893565 0.4467825 0.0438981
vn 0 -1 0
vn -0.8849595 0.4467825 0.1312715
vn -0.8678314 0.4467825 0.2173801
vn -0.8423454 0.4467825 0.3013963
vn -0.8087475 0.4467825 0.3825088
vn -0.7673605 0.4467825 0.4599384
vn -0.7185839 0.4467825 0.5329378
vn -0.6628863 0.4467825 0.6008055
vn -0.6008053 0.4467825 0.6628865
vn -0.5329381 0.4467825 0.7185836
vn -0.4599382 0.4467825 0.7673606
vn -0.3825089 0.4467825 0.8087474
vn -0.3013963 0.4467825 0.8423454
vn -0.2173802 0.4467825 0.8678313
vn -0.1312715 0.4467825 0.8849595
vn -0.04389808 0.4467825 0.893565
vn 0.04389814 0.4467825 0.893565
vn 0.1312715 0.4467825 0.8849595
vn 0.2173804 0.4467825 0.8678313
vn 0.3013957 0.4467825 0.8423456
vn 0.3825093 0.4467825 0.8087472
vn 0.4599379 0.4467825 0.7673608
vn 0.5329378 0.4467825 0.7185838
vn 0.6008055 0.4467825 0.6628863
vn 0.6628863 0.4467825 0.6008055
vn 0.7185838 0.4467825 0.5329378
vn 0.7673605 0.4467825 0.4599383
vn 0.8087474 0.4467825 0.3825089
vn 0.8423453 0.4467825 0.3013964
vn 0.8678313 0.4467825 0.2173804
vn 0.8849595 0.4467825 0.131271
vn 0.893565 0.4467825 0.04389808
vn 0.893565 0.4467825 -0.04389819
vn 0.8849595 0.4467825 -0.131271
vn 0.8678313 0.4467825 -0.2173805
vn 0.8423454 0.4467825 -0.3013963
vn 0.8087474 0.4467825 -0.3825089
vn 0.7673605 0.4467825 -0.4599384
vn 0.718584 0.4467825 -0.5329376
vn 0.6628863 0.4467825 -0.6008055
vn 0.6008055 0.4467825 -0.6628863
vn 0.5329379 0.4467825 -0.7185838
vn 0.4599383 0.4467825 -0.7673605
vn 0.3825093 0.4467825 -0.8087472
vn 0.3013956 0.4467825 -0.8423456
vn 0.2173804 0.4467825 -0.8678313
vn 0.1312718 0.4467825 -0.8849594
vn 0.04389798 0.4467825 -0.893565
vn -0.04389819 0.4467825 -0.893565
vn -0.1312712 0.4467825 -0.8849595
vn -0.2173804 0.4467825 -0.8678313
vn -0.3013961 0.4467825 -0.8423454
vn -0.3825088 0.4467825 -0.8087474
vn -0.4599383 0.4467825 -0.7673605
vn -0.5329378 0.4467825 -0.7185838
vn -0.6008055 0.4467825 -0.6628863
vn -0.6628864 0.4467825 -0.6008053
vn -0.7185836 0.4467825 -0.5329382
vn -0.7673607 0.4467825 -0.459938
vn -0.8087471 0.4467825 -0.3825095
vn -0.8423455 0.4467825 -0.3013959
vn -0.8678313 0.4467825 -0.2173805
vn -0.8849595 0.4467825 -0.1312713
vn -0.893565 0.4467825 -0.04389805

usemtl ProBuilderDefault
f 1/1/1 2/2/1 3/3/1
f 4/1/2 2/5/2 1/4/2
f 2/1/3 5/2/3 3/3/3
f 4/1/2 5/6/2 2/5/2
f 5/1/4 6/2/4 3/3/4
f 4/1/2 6/7/2 5/6/2
f 6/1/5 7/2/5 3/3/5
f 4/1/2 7/8/2 6/7/2
f 7/1/6 8/2/6 3/3/6
f 4/1/2 8/9/2 7/8/2
f 8/1/7 9/2/7 3/3/7
f 4/1/2 9/10/2 8/9/2
f 9/1/8 10/2/8 3/3/8
f 4/1/2 10/11/2 9/10/2
f 10/1/9 11/2/9 3/3/9
f 4/1/2 11/12/2 10/11/2
f 11/1/10 12/2/10 3/3/10
f 4/1/2 12/13/2 11/12/2
f 12/1/11 13/2/11 3/3/11
f 4/1/2 13/14/2 12/13/2
f 13/1/12 14/2/12 3/3/12
f 4/1/2 14/15/2 13/14/2
f 14/1/13 15/2/13 3/3/13
f 4/1/2 15/16/2 14/15/2
f 15/1/14 16/2/14 3/3/14
f 4/1/2 16/17/2 15/16/2
f 16/1/15 17/2/15 3/3/15
f 4/1/2 17/18/2 16/17/2
f 17/1/16 18/2/16 3/3/16
f 4/1/2 18/19/2 17/18/2
f 18/1/17 19/2/17 3/3/17
f 4/1/2 19/20/2 18/19/2
f 19/1/18 20/2/18 3/3/18
f 4/1/2 20/21/2 19/20/2
f 20/1/19 21/2/19 3/3/19
f 4/1/2 21/22/2 20/21/2
f 21/1/20 22/2/20 3/3/20
f 4/1/2 22/23/2 21/22/2
f 22/1/21 23/2/21 3/3/21
f 4/1/2 23/24/2 22/23/2
f 23/1/22 24/2/22 3/3/22
f 4/1/2 24/25/2 23/24/2
f 24/1/23 25/2/23 3/3/23
f 4/1/2 25/26/2 24/25/2
f 25/1/24 26/2/24 3/3/24
f 4/1/2 26/27/2 25/26/2
f 26/1/25 27/2/25 3/3/25
f 4/1/2 27/28/2 26/27/2
f 27/1/26 28/2/26 3/3/26
f 4/1/2 28/29/2 27/28/2
f 28/1/27 29/2/27 3/3/27
f 4/1/2 29/30/2 28/29/2
f 29/1/28 30/2/28 3/3/28
f 4/1/2 30/31/2 29/30/2
f 30/1/29 31/2/29 3/3/29
f 4/1/2 31/32/2 30/31/2
f 31/1/30 32/2/30 3/3/30
f 4/1/2 32/33/2 31/32/2
f 32/1/31 33/2/31 3/3/31
f 4/1/2 33/34/2 32/33/2
f 33/1/32 34/2/32 3/3/32
f 4/1/2 34/35/2 33/34/2
f 34/1/33 35/2/33 3/3/33
f 4/1/2 35/36/2 34/35/2
f 35/1/34 36/2/34 3/3/34
f 4/1/2 36/37/2 35/36/2
f 36/1/35 37/2/35 3/3/35
f 4/1/2 37/38/2 36/37/2
f 37/1/36 38/2/36 3/3/36
f 4/1/2 38/39/2 37/38/2
f 38/1/37 39/2/37 3/3/37
f 4/1/2 39/40/2 38/39/2
f 39/1/38 40/2/38 3/3/38
f 4/1/2 40/41/2 39/40/2
f 40/1/39 41/2/39 3/3/39
f 4/1/2 41/42/2 40/41/2
f 41/1/40 42/2/40 3/3/40
f 4/1/2 42/43/2 41/42/2
f 42/1/41 43/2/41 3/3/41
f 4/1/2 43/44/2 42/43/2
f 43/1/42 44/2/42 3/3/42
f 4/1/2 44/45/2 43/44/2
f 44/1/43 45/2/43 3/3/43
f 4/1/2 45/46/2 44/45/2
f 45/1/44 46/2/44 3/3/44
f 4/1/2 46/47/2 45/46/2
f 46/1/45 47/2/45 3/3/45
f 4/1/2 47/48/2 46/47/2
f 47/1/46 48/2/46 3/3/46
f 4/1/2 48/49/2 47/48/2
f 48/1/47 49/2/47 3/3/47
f 4/1/2 49/50/2 48/49/2
f 49/1/48 50/2/48 3/3/48
f 4/1/2 50/51/2 49/50/2
f 50/1/49 51/2/49 3/3/49
f 4/1/2 51/52/2 50/51/2
f 51/1/50 52/2/50 3/3/50
f 4/1/2 52/53/2 51/52/2
f 52/1/51 53/2/51 3/3/51
f 4/1/2 53/54/2 52/53/2
f 53/1/52 54/2/52 3/3/52
f 4/1/2 54/55/2 53/54/2
f 54/1/53 55/2/53 3/3/53
f 4/1/2 55/56/2 54/55/2
f 55/1/54 56/2/54 3/3/54
f 4/1/2 56/57/2 55/56/2
f 56/1/55 57/2/55 3/3/55
f 4/1/2 57/58/2 56/57/2
f 57/1/56 58/2/56 3/3/56
f 4/1/2 58/59/2 57/58/2
f 58/1/57 59/2/57 3/3/57
f 4/1/2 59/60/2 58/59/2
f 59/1/58 60/2/58 3/3/58
f 4/1/2 60/61/2 59/60/2
f 60/1/59 61/2/59 3/3/59
f 4/1/2 61/62/2 60/61/2
f 61/1/60 62/2/60 3/3/60
f 4/1/2 62/63/2 61/62/2
f 62/1/61 63/2/61 3/3/61
f 4/1/2 63/64/2 62/63/2
f 63/1/62 64/2/62 3/3/62
f 4/1/2 64/65/2 63/64/2
f 64/1/63 65/2/63 3/3/63
f 4/1/2 65/66/2 64/65/2
f 65/1/64 66/2/64 3/3/64
f 4/1/2 66/67/2 65/66/2
f 66/1/65 1/2/65 3/3/65
f 4/1/2 1/4/2 66/67/2

